
Hellboy 2004 BluRay 1080p DTS dxva-LoNeWolf 


General Information:

RUNTIME........: 2h 12mn
SIZE...........: 10.5 GiB
VIDEO CODEC....: x264 (L4.1)
RESOLUTION.....: 1920x1040
BITRATE........: Overall bit rate :  11.3 Mbps 
FRAMERATE......: 23.976 fps
AUDIO .........: English DTS 6 Channels
SUBTITLES......: English French German Arabic Bulgarian  Croatian Romanian Turkish
               :  Czech Dutch Greek Hungarian  Korean  Polish Slovenian  
CHAPTERS.......: YES
SOURCE.........: NTSC Blu-ray 
ENCODED DATE...: UTC 2011-02-24 11:00:36 
Encoder........: TequilaBob a.k.a. LoNeWoLf
GENRE..........: Action, Adventure, Fantasy  
RATING.........: 6.8/10 X  Users: 6.8/10 (71,671 votes) 581 reviews | Critics: 223 reviews Metascore: 72/100
Release Date...: 2 April 2004 (USA)  
Rated..........: Rated PG-13 for sci-fi action violence and frightening images 
IMDB link......: http://www.imdb.com/title/tt0167190/



Director: Guillermo del Toro
Writers: Guillermo del Toro (screenplay), Guillermo del Toro (screen story), and 2 more credits » 
Stars:Ron Perlman, Doug Jones, Selma Blair  

Storyline
In the final days of World War II, the Nazis attempt to use black magic to aid their dying cause. The Allies raid the camp where the ceremony is taking place, but not before a demon - Hellboy - has already been conjured. Joining the Allied forces, Hellboy eventually grows to adulthood, serving the cause of good rather than evil. Written by Brian Barjenbruch


Cast
Cast overview, first billed only: 
  Ron Perlman  ...  Hellboy  
  John Hurt  ...  Trevor "Broom" Bruttenholm  
  Selma Blair  ...  Liz Sherman  
  Rupert Evans  ...  John Myers  
  Karel Roden  ...  Grigori Rasputin  
  Jeffrey Tambor  ...  Tom Manning  
  Doug Jones  ...  Abe Sapien  
  Brian Steele  ...  Sammael  
  Ladislav Beran  ...  Karl Ruprecht Kroenen  
  Biddy Hodson  ...  Ilsa Haupstein (as Bridget Hodson)  
  Corey Johnson  ...  Agent Clay  
  Kevin Trainor  ...  Young "Broom"  
  Brian Caspe  ...  Agent Lime  
  James Babson  ...  Agent Moss  
  Stephen Fisher  ...  Agent Quarry  


[img]http://torrent-stats.info/cb38/f633fa50.png[/img]


Format : Matroska 
File size : 10.5 GiB 
Duration : 2h 12mn 
Overall bit rate : 11.3 Mbps 

Encoded date : UTC 2011-02-24 11:00:36 
Writing application : mkvmerge v4.4.0 ('Die Wiederkehr') built on Oct 31 2010 21:52:48 
Writing library : libebml v1.0.0 + libmatroska v1.0.0 

Video 
ID : 1 
Format : AVC 
Format/Info : Advanced Video Codec 
Format profile : High@L4.1 
Format settings, CABAC : Yes 
Format settings, ReFrames : 3 frames 
Muxing mode : Container profile=Unknown@4.1 
Codec ID : V_MPEG4/ISO/AVC 
Duration : 2h 12mn 
Bit rate : 9 499 Kbps 
Width : 1 920 pixels 
Height : 1 040 pixels 
Display aspect ratio : 16:9 
Frame rate : 23.976 fps 
Color space : YUV 
Chroma subsampling : 4:2:0 
Bit depth : 8 bits 
Scan type : Progressive 
Bits/(Pixel*Frame) : 0.198 
Stream size : 8.85 GiB (85%) 
Writing library : x264 core 112 r1867 22bfd31 
Encoding settings : cabac=1 / ref=4 / deblock=1:-3:-3 / analyse=0x3:0x113 / me=umh / subme=9 / psy=1 / psy_rd=1.00:0.08 / mixed_ref=1 / me_range=32 / chroma_me=1 / trellis=2 / 8x8dct=1 / cqm=0 / deadzone=21,11 / fast_pskip=0 / chroma_qp_offset=-3 / threads=6 / sliced_threads=0 / nr=0 / decimate=0 / interlaced=0 / constrained_intra=0 / bframes=6 / b_pyramid=1 / b_adapt=1 / b_bias=0 / direct=1 / weightb=1 / open_gop=2 / weightp=2 / keyint=250 / keyint_min=23 / scenecut=40 / intra_refresh=0 / rc_lookahead=100 / rc=2pass / mbtree=1 / bitrate=9499 / ratetol=1.0 / qcomp=0.60 / qpmin=10 / qpmax=51 / qpstep=4 / cplxblur=20.0 / qblur=0.5 / vbv_maxrate=50000 / vbv_bufsize=50000 / nal_hrd=none / ip_ratio=1.40 / aq=1:1.50 
Language : English 

Audio 
ID : 2 
Format : DTS 
Format/Info : Digital Theater Systems 
Codec ID : A_DTS 
Duration : 2h 12mn 
Bit rate mode : Constant 
Bit rate : 1 510 Kbps 
Channel(s) : 6 channels 
Channel positions : Front: L C R, Side: L R, LFE 
Sampling rate : 48.0 KHz 
Bit depth : 16 bits 
Stream size : 1.40 GiB (13%) 

Text 
ID : 3 
Format : PGS 
Codec ID : S_HDMV/PGS 
Codec ID/Info : The same subtitle format used on BDs/HD-DVDs 
Language : English French German Arabic Bulgarian  Croatian Romanian Turkish
         :  Czech Dutch Greek Hungarian  Korean  Polish Slovenian 


Menu & 15 Chapters
 
http://www.imagebam.com/image/fdb959121601710 
http://www.imagebam.com/image/69419f121601739 
http://www.imagebam.com/image/4544c3121601752 
http://www.imagebam.com/image/1ef019121601820 
http://www.imagebam.com/image/0a8a09121601830 
http://www.imagebam.com/image/7f8764121601926







